<?xml version="1.0" encoding="UTF-8"?>
<svg width="800" height="600" viewBox="0 0 800 600" fill="none" xmlns="http://www.w3.org/2000/svg">
  <!-- Büyük bulut -->
  <path d="M200 300 C150 300 100 250 100 200 C100 150 150 100 200 100 C250 100 300 150 300 200 C350 150 400 150 450 200 C500 150 550 150 600 200 C650 150 700 200 700 250 C700 300 650 350 600 350 C550 350 500 300 450 300 C400 350 350 350 300 300 C250 350 200 300 200 300 Z" fill="#E8F5FE" stroke="#4FACFE" stroke-width="2"/>
  
  <!-- Orta boy bulut -->
  <path d="M150 450 C100 450 50 400 50 350 C50 300 100 250 150 250 C200 250 250 300 250 350 C300 300 350 300 400 350 C450 300 500 350 500 400 C500 450 450 500 400 500 C350 500 300 450 250 450 C200 500 150 450 150 450 Z" fill="#E8F5FE" stroke="#4FACFE" stroke-width="2"/>
  
  <!-- Küçük bulut -->
  <path d="M500 200 C450 200 400 150 400 100 C400 50 450 0 500 0 C550 0 600 50 600 100 C650 50 700 100 700 150 C700 200 650 250 600 250 C550 250 500 200 500 200 Z" fill="#E8F5FE" stroke="#4FACFE" stroke-width="2"/>
</svg> 